# xmcd
#
# Track frame offsets:
#	150
#	19367
#	35787
#	60290
#	82245
#	95320
#	116777
#	130427
#	155547
#	170902
#	187477
#	196020
#	210610
#	224775
#	243697
#	264030
#	277085
#	304897
#	316675
#
# Disc length: 4416 seconds
#
# Revision: 0
# Processed by: cddbd v1.5.2PL0 Copyright (c) Steve Scherf et al.
# Submitted via: audiograbber 1.83.01
#
DISCID=2a113e13
DTITLE=Sampler Blues - The Alligator Records - 25th anniversary collection CD1
DYEAR=1995
DGENRE=Blues
TTITLE0=Seals, Son - Don't pick me for your fool
TTITLE1=Cotton, James - Digging my potatoes
TTITLE2=Collins, Albert and Johnny Copeland - Something to remember you by
TTITLE3=Clarke, William - The complainer's boogie woogie
TTITLE4=Musselwhite, Charlie - Stingaree
TTITLE5=Lil' Ed and The Blues Imperials - It's alright
TTITLE6=Chenier, C.J. and The Red Hot Louisiana Band - Man smart, woman smarter
TTITLE7=Vaughn, Maurice John - I want to be your spy
TTITLE8=Dixon, Floyd - Hey bartender
TTITLE9=Shaw, Eddie and The Wolf Gang - Sittin' on top of the world
TTITLE10=Cephas and Wiggins - Action man
TTITLE11=Neal, Kenny - Bayou blood
TTITLE12=Hunter, Long John - T-bone intentions
TTITLE13=Saffire - The Uppity Blues Women - T'ain't nobody's business
TTITLE14=Mack, Lonnie and Stevie Ray Vaughan - If you have to know
TTITLE15=Arnold, Billy Boy - Been gone too long
TTITLE16=Ellis, Tinsley - A quitter never wins
TTITLE17=Sugar Blue - I ain't got you
TTITLE18=Professor  Longhair - Crawfish fiesta
EXTD=
EXTT0=
EXTT1=
EXTT2=
EXTT3=
EXTT4=
EXTT5=
EXTT6=
EXTT7=
EXTT8=
EXTT9=
EXTT10=
EXTT11=
EXTT12=
EXTT13=
EXTT14=
EXTT15=
EXTT16=
EXTT17=
EXTT18=
PLAYORDER=
